<svg xmlns="http://www.w3.org/2000/svg" version="1.1" xmlns:xlink="http://www.w3.org/1999/xlink" width="1000" height="1000"><metadata><rdf:RDF xmlns:rdf="http://www.w3.org/1999/02/22-rdf-syntax-ns#" xmlns:dc="http://purl.org/dc/elements/1.1/"><rdf:Description><dc:creator>RealFaviconGenerator</dc:creator><dc:source>https://realfavicongenerator.net</dc:source></rdf:Description></rdf:RDF></metadata><style>
    #light-icon {
      display: inline;
    }
    #dark-icon {
      display: none;
    }

    @media (prefers-color-scheme: dark) {
      #light-icon {
        display: none;
      }
      #dark-icon {
        display: inline;
      }
    }
  </style><g id="light-icon"><svg xmlns="http://www.w3.org/2000/svg" version="1.1" xmlns:xlink="http://www.w3.org/1999/xlink" width="1000" height="1000"><g><g transform="matrix(1.8181818181818181,0,0,1.8181818181818181,0,0)"><svg xmlns="http://www.w3.org/2000/svg" id="uuid-cb23c597-a484-4f7e-ab8b-bef9a0a63efc" width="550" height="550" viewBox="0 0 550 550"><path id="uuid-a24323fa-996f-432e-9783-2496fd941e1b" d="m161,411c-19-16-22-39-30-59-5-13-14-24-23-35,12,34,5,58,34,82-5-2-10-6-14-9-23-19-57-22-71-53,4,23,22,43,41,56,19,12,43,11,63,18m50,12c3-1,7-1,11-2-14-2-27-7-37-16-15-14-28-28-44-39,17,34,23,48,51,54,0,0-8-1-12-2-30-6-66,2-88-23,9,16,26,29,42,35,26,8,53-1,77-7m40-2c-48,0-73,42-120,14,23,28,60,30,90,11,12-8,23-19,38-19,23,0,48,24,69,46,4-3,7-6,10-9-22-21-54-43-87-43m-135-47s-6-11-8-18c-7-27-3-60-15-86,2,15-4,28-5,42-2,19,5,32,10,41,0,0-7-9-10-14-14-22-43-37-45-64-4,59,37,75,73,99m-14-175c4-8,6-18,8-27-2,4-4,8-7,11-19,16-30,25-35,50l2-22c2-22-10-46,3-65-13,14-20,32-20,50,0,24,14,41,15,64,4-24,24-41,34-61m-7-44c9-8,20-15,28-25,9-12,17-26,29-37-16,7-34,13-45,30-6,10-7,22-12,32m-20,48c4-8,11-16,18-22,18-13,36-30,37-52-10,24-41,28-48,53,0,0,4-15,5-18,5-17,4-37,21-48-33,7-35,43-33,70,0,6,1,11,0,17m5,116s-2-19,1-27c8-24,16-50,15-75-8,30-33,40-22,81-4-8-5-17-8-25-6-22-23-41-18-67-8,23-8,41,0,65,5,18,23,31,32,48" style="fill:#009edc; stroke-width:0px;"></path><path id="uuid-7094df99-336f-42c0-8994-658da5ca7bd7" d="m389,411c19-16,22-39,30-59,5-13,14-24,23-35-12,34-5,58-34,82,5-2,10-6,14-9,23-19,57-22,71-53-4,23-22,43-41,56-19,12-43,11-63,18m-50,12c-3-1-7-1-11-2,14-2,27-7,37-16,15-14,28-28,44-39-17,34-23,48-51,54,0,0,8-1,12-2,30-6,66,2,88-23-9,16-26,29-42,35-26,8-53-1-77-7m-40-2c48,0,73,42,120,14-23,28-60,30-90,11-12-8-23-19-38-19-23,0-48,24-69,46-4-3-7-6-10-9,22-21,54-43,87-43m135-47s6-11,8-18c7-27,3-60,15-86-2,15,4,28,5,42,2,19-5,32-10,41,0,0,7-9,10-14,14-22,43-37,45-64,4,59-37,75-73,99m14-175c-4-8-6-18-8-27,2,4,4,8,7,11,19,16,30,25,35,50l-2-22c-2-22,10-46-3-65,13,14,20,32,20,50,0,24-14,41-15,64-4-24-24-41-34-61m7-44c-9-8-20-15-28-25-9-12-17-26-29-37,16,7,34,13,45,30,6,10,7,22,12,32m20,48c-4-8-11-16-18-22-18-13-36-30-37-52,10,24,41,28,48,53,0,0-4-15-5-18-5-17-4-37-21-48,33,7,35,43,33,70,0,6-1,11,0,17m-5,116s2-19-1-27c-8-24-16-50-15-75,8,30,33,40,22,81,4-8,5-17,8-25,6-22,23-41,18-67,8,23,8,41,0,65-5,18-23,31-32,48" style="fill:#009edc; stroke-width:0px;"></path><g id="uuid-b64406ea-0073-46b6-8f27-f16d641f07df"><circle cx="275" cy="242" r="163" style="fill:none; stroke:#009edc; stroke-width:4px;"></circle><circle cx="275" cy="242" r="129" style="fill:none; stroke:#009edc; stroke-width:4px;"></circle><circle cx="275" cy="242" r="98" style="fill:none; stroke:#009edc; stroke-width:4px;"></circle><circle cx="275" cy="242" r="64" style="fill:none; stroke:#009edc; stroke-width:4px;"></circle><circle cx="275" cy="242" r="33" style="fill:none; stroke:#009edc; stroke-width:4px;"></circle><path d="m275,79v130m0,66v130M160,127l92,92m46,46l92,92M112,242h130m66,0h130m-278,115l92-92m46-46l92-92" style="fill:none; stroke:#009edc; stroke-width:4px;"></path></g><g id="uuid-5207e389-1371-40e9-b6a6-53b6bfa84a95"><path d="m267.1,282.2c.4-.8,1.2-4,2.2-3s1.6,0,1.6,0c0,0,.5.5.2,1.5-.2,1-.5,2-1.1,2.2-.6.1-1.1.5-1.9.6-.6.1-1-1.3-1-1.3Zm8.2-1.3c.2-.2.5.8,1,.6.5-.1.7.9.2.9s-.5.6-.5.9,0,.9-.4,1.3-.7.1-1.2-.1c-.5-.3-.7-.3-1.4-.3-.6,0-.1,1-.1,1,0,0-2.6-.1-2.1-.5s1-.5.6-.8,0-.5,0-1,1.2-.3.9-.6c-.4-.4,0-1.8.6-1l.4-.9c-.4-.4-.1-.5-.9-.8-.7-.3-.1-1.8-.1-1.8l.1-1c.2-1.3,2.7-1.4,2.9-.3.1,1.1,0,1.9,0,1.9l.7.3s-.1.8-.7.8,0,.4-.4.8l.4.6Zm92.1-60.8c-.7.7-2.2,1-2.2,1l-.5,1.9-.8.7s.2.5,0,1.7-1.7,1.9-1.7,1.9l-.7.8s-4,.2-4.5,0c-1.5-.7-.5-2.7.5-2.5s-.2-2.9-.2-2.9l1.3-.2s.2-3,.7-3-.2-1-.8-1.5c-.7-.5-1.5-2.2-2.2-2s-3.3,0-3.3,0l-.5,1-1.8.3s.2,1.3-.2,1.7c-1,1.2-4.8,3.7-3.2-.5l.5-1v-1.5l-3-.2s-1.5-.5-1.5-1.2-.2-1.5-.2-1.5l-3.5-3.9-4.2-.5-.3-.8-2.5-.3c-3-1.5-5.7-.2-5.2,2.4.5,2.5,1.3,3.5-.3,3.5-1.7,0-2-1.3-2-1.3,0,0-1.3-.5-1.3.2s-.5,2,0,2.7-.7,1.7-1.2,1.2-1.8-2-1.5-2.5-2.3-3.7.3-4.2c2.7-.5-.2-2,.8-2.4l1.3-.7h1.3l.8-.7-2.2-.3-1.3-.2-2.5-.2c-2.5,1.7-3,3.7-3,3.7-1.3,2.5-4.5-1-3.3-2.4s-3.7-.2-4.5.5-3.3.3-3.3.3c-.5,1.5-2.8-.2-2.2-1.2.7-1,.7-1.7.7-1.7l-.8-.2-1,1.9c-2.3,0-3,1.3-2.5,2.2.5.8-.7-.2-1,1s.2,1.2,1.2,1.7-.5.5.2,1.3,2.7,0,1.5,1.2-3.5.7-3.5.7c-.2,1.5-3.3,1.2-3.7.7-.3-.5-2.8-3.5-2.8-3.5l-3.2-.2c-.3-2.4,1.5-1.2,2.2-3,.7-1.9,1-4.9,1-4.9,0,0-2.7-.2-2.8.7-.2.8-1.8,1.4-1.8,1.4,0,0-1.3.5-.8,1.2s-1,1-1,1c0,0,.3,1.1-.2,1.5-1.3,1.4-4.7.2-5.2-.3l-2-.8-2-1.3-2.3,1-.7.7h-2.5l-.2,2,4.5.5.3,4.2-1.8-.6h-1.2l-.5-1-1-.2v3.7l1,.8.8.8,1.7.2.3,2,4.2.2.5.8,2.5.2,4.8,4.9-.3,1.5-.8.5c.3,1.2-2.2.5-2.2.5v1l1.2.2,1.2.7,1.7-2.9c1.8-1.2,2.7.5,2.8,1.5.2,1-.8.8-.8.8v2.4l1,.3c1.7,2-.7,3.2-.7,3.2l-.5,1.7c-.5,1.5-2.3,1.2-2.3,1.2l-.7,1-2,.5,3.9.5c.4-1.4,1.4-1.7,1.9-1s.5,1.9.5,1.9l1,.2-.2,1.9,1,.3v5.4l1.2,1.3c2-.8,2,.5,1,1.2s-.3,3.7-.3,3.7l-.8.8v1.4l-1,.7v1.9c-1.7-.8-3.7-.5-4.2,0-1.5-1-4.7-.7-4.7.2,1,1.3-1.2,1.7-1.2,1.7l-1.2,1.3c.8,1.7-.8,1.9-.8,1.9v3.2l-2,1.9.2,4.4c0,1.2,2.5,1.3,3,.7.5-.7,2.5,1.4,2.5,1.4h1.5l.3-3-1-.5v-4.9l1.7-1.9c2-.7,1.3,4.4,1.3,4.9.2,1.9,1,1.7,1.8,1.3,1.7-.7.3,1.9-1,1.7s-.5,1.7-.5,1.7l.8.3-1.5,1.2-1.3,1.5-1.7-.5-2-.2-.7-1.2-1.2-.2-.2,2.4-.8,1-2,2c2.7,0-.3,1.9-1,1.9,1.5.5-.2,2-4,.8v1.2l-1.3.2,1.2,1.3,1.3.2-.5,2.9c0,2.2-5.5.7-6,.2l-.2,3-1,.2.2,2-.2,2.9,1.8-.3v1.2l4.5.2,6.5-6.9,3.8-.8c.3-1.7,2,.3,2,.3,1.7-.2,2,1,2,1l2.2.3c1.8.5.7.7.8,1.4.2,1,1,.7,1,.7l.3-2.2,1,.2-1-1.2-1.8-.8-2-.8c-1.3-1.9.3-1.5,1.7-1.3h2.2s2.5,3.4,2.5,4.2,1.2,1,1.2,1l1.5-.2.5,1.2h1.5l.5,1h3l.2-1.5-2.8-.5-.2-1.7-2-.5c-.7-2.9.5-3.7,1.3-2.4l1,.2-.3-2.5,1.2-.3-.3-3.5-1-.3v-1.2l4.2.2c-.3-2.2.2-3.2.2-3.2h1.2l.2.8,5.1.5,3.6-4.1c-.2-.3.4-.5,0-.9-.5-.5-1.2,0-2-.5s0-3.4-.2-4c-.2-.7,2.8-1.7,2.3-.2s0,2.2,0,2.2c2.2-2,4,.2,3.8.7s1.2,1,2,.5,1.8,1.5,1.5,2.5-3.3.8-3.5-.2-.7-.7-1-.2-1.8.8-2.7.3c-.2-.1-.2-.2-.3-.3l-3.6,4.1h.2c2,1.2,1,2.7.3,3s-1.8.3-1.8.3l-.3.7-4.3.3-.3,1.7c-2.2-.3-3,2-2.5,3.2s0,2.2,0,2.2l1.8.8,2.3-.7c.3-1.7,1.8-2,3.2-3,1.3-1,3.5,1.9,2.8,3.2s-.7,1.9-.7,1.9l.2,1.5-1.7.7-1.3.7-.2.8h-4.5l-.8.8-2.2.2-.7,1-1.5.2s-2.5,1.2-1.5,2.5c1,1.4-4.2,1.2-5.3-.7-.3,1.7-2.2.2-2.2.2l-1.8-.5-.2-2.5c-.3-1.7-3.5-1.7-3.3-.5s-6,.5-6,.5l-2,1-1.8,1.1-.2.8-3,.3-1.3.7-.5-1h-1.3l-1.3,1.9c-3.5.2-6.8,2.2-6.5,3s-1.3,1.7-1.3,1.7l-1.5.5-1,1.5-2,.7-.3,3.5-1,.7v1.5l-1.2.3v.8l-1.7.2,1,2.5,1.3.7c2.3.3,1.3,3.2,1.3,3.2l1.3.2.7,1.9,1.3,2.7c.5,2,2,1.5,2.7,1.4.7-.2,1.3,2,1.3,2l6.6.2s-.3.7.8,1c1.2.3,8.8.7,9.1.2-.3-1.5,4.2-1.9,6-.5,1.8,1.3,4.3.5,4.3.5l2.5,3,1.7,3.7,2.8.8,2,.5.7,2.9,1.5.2.5,1.9c1.8,1.3-.5,4.2-.5,4.2v3.7l1.3.7-.2,1.4,2.2,2.2,2.5.2,6.3,6.7,5,1.5.8,2.7,1.3-.2,1-.8,4-.2,2-1.9,2.2-.3,18.5-15.7-1.7-1v-3.7c3-2.2,3.2-6.1.3-6.4-2.1-.3-1.2-2.5.8-2.9l1.2-.5v-1.5l3.8-3.5v-2.7l-8.3-6.9c-3.7-1.3,0-9.4,2.5-9.3,2.5.2-.2-12.5-.2-12.5l-1.3-.7.3-4.1h-1.8l-3,3.9-.8,2.7c-.3,3.5-10.6,2.9-11.1,2.4s-4-2-4-2c0,0-2.7-2.2-3.2-1.5s-2.8-.8-2.8-.3-2.2-1.2-2.2-1.2l-3.3-1.2,2.5-.5-.5-2,4.3,2.2c.5.7,2.7.5,2.7.5l.7.8s1.3-.2,2.2.8c.8,1,5.2.2,5.2.2l1.2,1,1.8.7,5.2.2.2-3.2,1-1-.2-2,1.2-1v-1.7l1-.3.2-3.7.8-.2v-8.1l-2.5-2.4c-.2.8-2.8.8-2.8.8,0,0-.7,1.2-1.2,1.2s.7,1.5.3,2.5c-.3,1-1.7,1-1.7,1l-2.5.7-.7.8h-2.7l-.3-2.2,3-.8,1.7-.8.8-1.7c.2-1.7,2.2-1.5,2.2-1.5,0,0,3.8-3.2,4-4.7s1.5-5.7,3.8-5.7h4.3c1.7-.7,1.2-2.9,1.2-2.9l2.2-.3.3,1.2s3,.3,3.3-.2,1-1.7,1.8-1.2,3.5-1.2,3.5-1.2c.2-1.2,4.3-.7,4.3-.7l.5-1.5s-2.8-3.9-3.3-3.9-3.2-2.4-3.5-1.5c-2.7-.7-2.5-4.4-2.5-4.4l-1-2.4c0-1.4-2.5-4.2-3-3.9-2.5-1.9-.7-4,0-4.2s2.3-2.5,2.3-2.5l.8-2.4,2.8-.8.3-2.2-1.5-.2s1.7-3,2.5-3,6.3,0,6.8-.3,1.5-3,1.5-3.5,1.3-.7,1.8-.8c.5-.2,1.7-1.5,2-2.2.9-1.7-.2-5.9-.9-5.2Zm46.1,53.9c-.1-.3-.2-.6-.5-.7-.7-.3-2,.2-2.6.6l.6.8c.6-.4,1.5-.6,1.6-.5v-.1l.9-.1Zm4.3,20.1l-1-.1c-.1.8.1,1.8.9,1.9l.2-1s-.1-.4-.1-.8Zm3.7-4c.3,1,.6,2,.6,2.1l.9-.4s-.4-1-.6-2l-.9.3Zm2.2-.8v-.2c0-.3-.1-.7-.3-1.1l-.9.5c.1.2.1.5.2.7,0,.3.1.6.3.8.2.1.4.2.7.1l-.2-1c0,.1.1.1.2.2Zm-8.5,7.2c.7-.4,1.6-1.3,1.5.6s-.9,1.3-1.5,1.9-1-1.9,0-2.5Zm-40.1,13l.1-1.5,1.6.2-.1,1.4-1.6-.1Zm.1,3.3c-.2-.9-1.2-1.2-1.3-1.2l-.3,1c.1,0,.2.1.3.2l.2.9c-.1.1-.2.2-.2.3l.7.7c.5-.8.7-1.3.6-1.9Zm-124.3,31.2l-1,.9-.5.4.5.4,1.2.8.6-.8-.7-.5.5-.4-.6-.8Zm11.8,12.1l-.4.9,1,.5-.3.4.7.7,1.3-1.3-.6-.4-1.7-.8Zm-45.9-217l1,1-.7.7-1-1,.7-.7Zm30.2,31.5l1,.8-.6.8-1-.8.6-.8Zm-3.8.7l.2,1.9h2.5c1,0-.8-1.2-.8-1.2,0,0-2,.2-1.9-.7Zm54.8-47l-1.7-.2-.1,1,1.4.1,1.1,1.7.8-.6-1.1-1.8-.2-.2h-.2Zm4.5-35.4l-.5.9,1.3.8.3.2.2-.2,1.9-1.2-.6-.8-1.5,1-1.1-.7Zm8.9,4.8l-.8-.9-.7.8,1.5,1.5.3-.3,1.7-1.4-.7-.8-1.3,1.1Zm-55.2,35.1c-.1-.6,3.3-.7,3.8-.2s.2,1.4,1.7,1.4.8,1,.7,1.5c-.2.5-1.8.3-2-.2s-2.7-.7-2.7-.7c0,0-1.3-1-1.5-1.8Zm19.1-1.9c2.6.8,3.5.2,3.7-.5s.3-.8,1.3-1-.2-2.2-1.2-2-2-.3-2.2-1.2c-.2-.8-1.8-3-2-1.3s-1.2,1.7-1,2.9c.3,1.1.8,2.9,1.4,3.1Zm16.5-28.5c-.4-1.5-2.5,1.9-.3,2.5,2.2.7,4.3,0,4.3,0l.5-1,8.3.2c.7-.7,1-1.7,1-1.7,0,0,2-.7,2.8-.3.8.3.2-2.4-.7-2-.8.3-2.5.2-2.5.2h-3c-.2-1.2-2.8-.7-3,0-.1.6-1.1.8-1.1.8l-3.8.3c-.4,1-2.3,1.7-2.5,1Zm.3,8.3l-2.2-2.2v-1.9l-.7-.7-.7-2.4-2.2-.7-2.2.8-2.3,1.5-2.5.3-1.3,1.5,5.3.5,1,1.7,3.8.3,2.5,2.5c2.3,1,2.8,0,1.5-1.2Zm7.7,16.2l.7-1.6.9.5-.7,1.5-.9-.4Zm49.7-1.7c-.3-1.3,3.3-2.5,4.2-1.5.8,1,3.2,1.2,3.5,6.2.1,1.8-3-1.9-3-1.9l-2.5-.8c-1.4-.3-2.1-1.1-2.2-2Zm-17.5,4.4c-.5,1.5-.7,3.5-1.5,3.5s-.5,2.2-.5,2.2c0,0,2.2,0,2.8.2.7.2.7,1.9.7,1.9,2.5-.2,3.5,3.2,3.2,4.1-.3.8,1,.8,1,.8,0,0,0,2.7-.3,3.4s2.2,1.2,2.8,2.2c.7,1-.3,4.4-.8,4.6s1.3.7,1.2,1.5c-.2.8.5,0,.7,1.4.2,1.3.5,4.2.5,4.2l2.3.2c.3-2.2,4.6-2.3,5.3-2,2.8,1,5,5.4,5,6.4s-1.8,1.2-1.8,1.2l.3,4.9c2.8.8,5.2,4.9,4.8,5.6-.3.7,2,.5,2,.5.3-3,3.2-2,3.3-1,.2,1,.7,3.2.7,3.2l.8,1.5,1.2,1.2,1.8-.2.5,1,2.2.3s1.8,2,2,2.5,2.7.3,3.3.5c.7.2,1.7.7,1.8,1.5.2.8,1.2,2.2,1.2,2.2,0,0,2,.5,2.2,1.2s1,2.2,1,2.2l1.7,1.4.2,1.5,1.8.2.5,2,3-.2,1.7-1.2c2.2-1.2,3.7-2.7,3.8-3.4.2-.7.5-3.2,2.2-2.7s.5-3.7.5-3.7c0,0-2.3-1.7-2.2-2.5.2-.8-2.3-2.5-2.2-3.2.2-.7-2.2-2-2-2.7s-1.2-2.5-1.2-2.5l-2.5-2.4-.3-1.5-2-.2-4-4.9.2-1.4-1.2-.2v-1.9l-1.2-.7-1.8-.2-3.7-4-.3-1.9h-1.8l.3-3.5c1.2-1.5.5-4.4.5-4.4,0,0-2.3,1.2-3.5.7s.5-1.7.5-1.7v-1.3l-1-1s-2.8.3-3-.2-.7-2.7-.7-2.7l-.2-2.9-1.2-.5-.2-1-1.8.2v-2l-1-.3-1-.5-.2-2-3.7-.2-1.2-1.7-1.3-2-4.2-.3-1-1-1.7-.3-1.2-.5-.5.8-3.2.2-.2,1c-1.4.7-8,0-8.2.5Zm-30.6-1c.3.5,2.3,1,2.3,1,1.3,0,2.2,1,2.2,1.5s1.8.3,1.8.3l.2-1.2-1.3-1.7-1.2-.8s-1.8-.2-1.8-.7c0-.4-1.9,1.1-2.2,1.6Zm0,5.7l-1.3-.3v1.5l1.8.2-.5-1.4Zm18.5,18.6v-1.3s-.2-1.3-1-1.3-2.3-1-2-1.7-2.8-1.4-2.8-1.4c0,0-2.8-2.7-1.8-2.4s.5-1.2.5-1.2c0,0-2,.3-2.5.2-.5-.2-.3-1.7-.3-1.7,0,0-2-.5-2,0s.7.5,1,1.5.2,2.7,1.7,3,1.8.7,2,1.4,2,.8,2,.8l1.3.7,3.9,3.4Zm1.3,4.5c-.2-.7-.5-3,.5-2.9,1,.2.3,0,1.5.5s1.3-.8,1.3-.8h1.8l2.3,1.9-.3,1.5-1.7.2c-.8-1.3-2.5-.8-2.2.3.3,1.2-.8,3.4-1.5,3.5-.7.2-2.8.2-2.7-.8.3-1,1-3.4,1-3.4Zm27.4,23l1.2-3.7c-1.7-.3-1.3-2.2-1.3-2.2-.2-1.5-2.5-3.2-3.3-2.7s-.5-3.5-.5-3.5c0,0,1.5-1,2.2-.5s-5.7-8.4-7-7.6-4.3-.8-4.2-2.4c.2-1.5-6-6.6-6-6.6,0,0-2-1.3-2.3-.3s-1,1.7,0,2.2.8-.8,2,.3c1.2,1.2,3.3,2.7,2.5,3.7s-1.8,1.4-1.8,1.4l1.2,1.4h1.8l.3,2.9s2,1,2.5,2.2.5,1.9,0,2.5c-.5.7-1.5,1.9-1.3,3,.2,1.2,1.5,1.7,1.5,1.7l1.3.2,1,.5v2.2c1.3-.3,3.5,1.5,3.3,2.7s.3.5,2,1.7,1.2,1.4,2.3,2.2c1.1.7,2.1.2,2.6-1.3Zm-38.2,21.6c0,.5-.3,1.2.7,1.4s2.8-.7,3,.3.2,1.7,1.5,2.2,2.2.7,3.2.7,3.2-.3,3.2-.3c0,0,2.4.4,2.8.8,1.8,1.9,3,2.4,3.5,1.5.5-.8-.2-2.7-.3-3.4-.2-.7-2.5-3.9-3.3-3.2s-1,0-2.5.5-4.7.2-4.8-.5c-.2-.7-2.5-1-2.5-1.7s-1.7-1.5-1.5-.5-1.2,1.5-1.5,1.2c-.5-.4-1.5,1-1.5,1Zm-8.3,1.8l-.2,1.2,1.8.2s.8.7.8,1.2,1.2,1,1.8,1c.7,0,2.5-1.4,2.5-1.4,0,0,.8-2.4.2-2.2-.7.2-2,1.2-2.2.2s-2.2-.5-2.2-.5l-2.5.3Zm-8.6,1.9l.5-.1.3.9-.5.2-.3-1Zm.6-1.6l1-.2.3,1.5-.9.2-.4-1.5Zm2.8.2l.1,1,3.6-.1v-1l-3.7.1Zm32.4-.8l1.7-.2.1,1-1.7.2-.1-1Zm4.4,3.7l.5-1.2.9.4-.5,1.2-.9-.4Zm14.5-16.9l1.7-.1.1,1-1.7.1-.1-1Zm2.8,1h1v.8h-1v-.8Zm3-14.2l-1,.1-.2-1.5,1-.1.2,1.5Zm-1,21h1v1.2h-1v-1.2Zm2.2.6l.9.4-.5,1.1-.9-.5.5-1Zm-4.9-13.3c1,0-.3,3.9,2.3,3.5,2.7-.3.2,1.2,2.2,1.3,2,.2,1.5-1.5,2.2-2.7s.3-1.9-.8-2.2q-1.2-.3-1.5-1.7c-.3-1.3-1.7-1.7-1.7-1.7l-.5-2-2.2,1.3-2.2,2.9c0,2.4,1.2,1.3,2.2,1.3Zm6.5,9.2c1.3-.7,4.2-.7,4-1.7s1.7-1.3,1.7-1.3l.5,2,1.5,1,.2,1.9s.5-.3-1.3.2-.7,1.3-.7,1.3l-4,.2-.5-1.7-1.4-1.9Zm-21.5,14.1c.8-.2,2.8-.3,3.2.2.3.5-1.2,1.2-1.2,1.2l-2,.3c-.6-.8-.8-1.5,0-1.7Zm10.7-1.5c.9.9-5,.7-5,0s.5-3,2-2.5,1.7-3,1.7-3c0,0-1.3.2-.2-.5,1.2-.7,0-1.7-.5-2.2s-1-1.4-1-1.4h2.3c1-.7,1.3-3.9,1.3-3.9,2,.7,3-.7,3-.7,0,0,.3,1,1,1.9.7.8-1.7,1.2-.8,1.7.8.5,1.2,2,.8,2.5-.3.5-2.2.2-2.2-.5s-.7.8,0,1.7c.7.8-.8,2-1.2,2-.3,0-2.5.3-.7,1.4,1.8,1,3.8.5,3.8.5,0,0,1.5-.2,2,.7.5.8-.2,1-1,1s-4.8-.3-4.8-.3c0,0-1,1.1-.5,1.6Zm19.4-19.1c-.5-.7-1-1.2-1.7-1.5s-1.2-.7-1.8-.7c-.7,0-1.3-.7-1-1.5s-.5-1.2-.5-1.9.5-.7,1.3-.2.7.7,1.3,1.5c.7.8,1,1.7,1.7,1.5s1.2,1.5,1.8,1c.7-.5.5,1.2.5,1.2l-1.6.6Zm-1.6,1.6c.5.7,1.5,1.2,1.5,1.9s-.3,1.2.7,1.3c1,.2,1.7-.2,2,.7.3.8.3,2.2.2,2.9-.2.7.2,1.7,1,1.7s1,.2,1,.7,1-1.9,1-1.9c-.8-.7-1.5-2.2-1.5-2.2,0,0-.8-2.4-.8-2.7s-1.2-.7-1.7-.8c-.5-.2-1.3-1.7-1.3-1.7l-2.1.1Zm10.8,27.3l-.7-1.5s0-1.3.3-2-.7-1.3-1.2-1.5-.3-1.5-.5-2.2-1.3-1.2-1.3-1.2c0,0-.3-2.5-.3-3s-1.5-1.2-1-1.7.8-1.2,1.3-1.5-.5-2.7.3-2.2.8,1.4,1.2,2c.3.7-.2,3,.7,3.5.8.5-.2,2.2,1.2,2.2,1.3,0,.5,3.2.5,3.2,0,0-.3,2.4.5,2.5.8.2.3,4.2.3,4.2l-1.3-.8Zm.5,12.9l.5-1,.9.5-.5,1-.9-.5Zm1.1-5.5l1,.1-.1,1.4-1-.2.1-1.3Zm-2.1-5.6l-1.3-.2-3,.5-1.7,3.2s.8.5,1.5,1.7,1,8.1-1,9.3.2.5.2.5l-.3,3.7c.5,1.7,1.3.8,1.8,0s1-1,1.7-1.9c.7-.8,1.7-2.4,1.8-3.5.2-1.2,1-3,.5-3.5s.5-2.9.5-2.9c0,0,.7-1.4,0-2.7-.7-1.4.2-2.9.7-3.5l-1.4-.7Zm-7.3-17.2h-2.5s.8.3-1.5-1.9-3.8.5-3.8.5l-2.7.3v2.7l-1.3.5.2,1.7,1.8-.2s0,2,.5,1.2,4.7.2,4.3,2.2c-.1.8,4.2,3,3.7,5.7,2.2.3,1.7,2.5,1.7,2.5l2.8.3.8-1.7.8.2v-1l-1.8-.5-.3-5.4-1.2-.8.3-1.4-1.3-.5.7-2.2-1.2-2.2Zm-6.2,41.4l1-.4-.4-.8-.2-.6-.5.3-1.2.7-1.1-.7-.5.9,1.3.8.3.2.2-.2,1-.5.1.3Zm4.4-2.2l1.8.3.2-1-1.8-.3-.2,1Zm-3.4,21.6c-.7-1,3.3-2.7,4-.7s0,1.7-.7,1.5c-.6-.2-2.3.5-3.3-.8Zm-17.2,32.5h1.2v3.2h-1.2v-3.2Zm7.7,30.9c-.3,1.3-1.5,2-2.2,1.5s.8.8,1.2,1.5c.3.7,1.3.7,1.7,0,.3-.7.2-2.2.5-2.9.3-.6-1-.8-1.2-.1Zm3.7,6.8l1.5.7.2,2.9c2,2,8.5.3,8.5-.2s-.3-6.2-.3-6.2l-.8-.8-.2-4.2c.7-2.2-3.2-5.4-3.5-4.7s-2.5.2-2.5.8c0,.7-1.3,4-.7,5.2.7,1.2-.5,1.2-.7,2.4-.2,1-1.9,3-1.5,4.1Zm-46.8-36.1l-.5-.8-1.4.8.6.9,1.3-.9Zm-25.4,3.3c-.8.8-.6,1.5,0,2.1m5.2,2l1.1-1.9-.9-.3-1.2.8.5.5.5.9Zm-1-52.7c.7,1.5.5,3.7,3,5.4.8.6-.5,1.7-1.3,1.2s-3.2-4.2-3.2-4.2v-2.2c.5-1.3,1.2-.8,1.5-.2Zm-8.8,8.8c.4,1.5.3-2.4,1-2.2s.2-2.4.2-2.4l-3,2.2c1.4.2,1.6,1.7,1.8,2.4Zm-9,10.8c-.2,2-2.7,2.7-2.7,2.7l-1.8-.5-1-.8-.2-2.4,1.5-.2.3,1,3.9.2Zm-2.7-20.4v-2.4l-.3-2.2-2.5-1.2-1.8,1.7-.3,2.4v1.5l-1.7.3-.3,4.6-1.3.5.2,1.7-3.6,1-.3,2.2-1.3.8-.7,2-.8,4.9s1.5,2.9,2.3,1.5c.8-1.3,2.2-1.5,2.2-1.5l.5-1.2,4.5.2c.3-1.9,2.5-1.2,2.5-.3,0,.8,1.7.2,1.7.2l1.2-1.9h1.8l.2-2,.8-.5v-3c2.7-.8,2.3-3.4,2.3-3.4l.7-.8-.3-1.2c-1.3-.5-.7-1.7.2-1.4.8.3-1.2-1.5-1.2-1.5-1,.8-1.8-1-1.8-1h-2.9Zm-7.6-6.9l-1.3.3-3,2.9-.2,1.3-.8,1.2-1,2.5-3.5.2-.7,3,.5,2.6,3,1.2.3-1.7,1-.5.2-1.7.7-1.2,1-1.2.3-1.3,1.7-1,2-.4.8-1,.3-2,.2-1.5.7-1.1,2-.8v-3.2h-1l-.2-1.2-1.8-.2-.4.9h-.8l-.2,1.3h1l.2,1.1-.7.6-.3.9Zm-52.8,20.3c0,.4-.3.7-.7.7s-.7-.3-.7-.7.3-.7.7-.7.7.3.7.7Zm-.1,19.3c0,.4-.3.7-.7.7s-.7-.3-.7-.7.3-.7.7-.7.7.3.7.7Zm-1.8-2.8c.4,0,.7-.3.7-.7s-.3-.7-.7-.7-.7.3-.7.7.3.7.7.7Zm-2,4l-1.4.2v1.2l1.4-.2v-1.2Zm1.5-8.6l-1.2.2-.1,1.3,1.3.2v-1.7Zm-.3-9.1l.1-1.2-2.5,1.7-1.6-1v4l2.6,3.6,1-2.4.4-1.5-1.2-.5.2-2.5,1-.2Zm-1-14.2l-3-.3.2,1.2h.8c1.3,2.4.2,8.1.2,8.1,0,0-2,.2-2.3-.8s-1.2,2.2-.5,2.7,3,0,3.2,1.9,1.5-1.2,1.5-1.2l-.1-11.6Zm67-33.4h-1.8l-.3-3.7,1-.7v-1.9h-5.8l-.2-1.9.8-.5-1.3-.5-1,1.3-.3,1.5-1.7.3v.8h-1.2v2.2l-4.7,3.9-9.3-.3c-.7,1.5-2.3-.2-2.3-.2-.3-1-2.7,0-2.7,0,0,1.9-3.2-.8-3.2-.8l-5.8-4.2c-3.3-3-8.3.8-8.5,1.7.2,2.4-3.8.5-3.8.5,0,0-3.3-1-3.8.3s-2.7,1-2.7,1l-.3.7-1.7.3-.3,1-2,.3,5-.2c1.3-.2-.5,2.9-1.3,2.7l-2.3.2-.8.8h-2.2l-1,1.4-3.2-.2s-1.8,1.5-1.7,2c.2.5-.3,2-.8,2s-1.5,1.5-1.2,2-1,2.2-1,2.2l-.3,1.7-1,.3v4.6l-2,1.4v2l-3,3.2.3,2.7-2.5,2.7.3,2.7-1.5.5-.3,1.2-.7,3.5,1.7.2c.8-.3.7,2.2,0,2.5s-2.5,1-1.5,1.7-2.7.5-2.7-.5-2-1.9-2.5-1.5c-.5.3-1.3-1.5-1.3-1.5-1.8-1.9-7.5.2-7.5.2l-.8,2.7c-1.8.3-3,3.4-3,3.4-1.5.5-2.7,2.4-2.2,2.9s-.8.7-.8.7v3.7l-.8,1.2.2,4c1,0,.8,1.9.8,1.9-1.7.2-1.3,2.4-1.3,2.4l-3.5,1.2-.7,1-4.3-.2-1.2,1.2-1.2-1.2h-8.3l-.3-.8-1.7-.3-.2-1.9-2.5.2-.5,1-2.7.2c.2,1.7-2.7,4.2-3,3.5s-2.2-2.5-1.3-2.9c.8-.3,3-.7,3-.7v-1.2l-6.2-.2-.7,1-2.5.2v2.7l-1.2.3c-.8.5.2,2.4.2,2.4,1.2,1.2-.2,3-.2,3-1,1,.8,2.9.8,2.9,1.3.3-.8,1.3-.8,1.3.3,1.7,1.3,2.2,1.3,2.2-1,1.7.7,2.5.7,2.5l.2,2.9,1.2.7v1.9l.7,1.2h2.7l-.2-4.2c-2.3-2.7,2-3.4,2.2-2.4s2,1.5,2,1.5c.3,2.5,3.2,4,4,1.5s1.5-1,2,.2,3.7,4.1,3.7,4.1h2.5l.3,2.4c2.8-.2,3.7.2,4.8,4,1.2,3.9,4.3,4.9,4.3,4.9l2.3-.2c0-2,2.3.3,2.3,1.4,0,1,4.5,4.9,4.5,4.9l4.5,1,4.2,3.4,3.2-.3h1.3c.8-2.9,4.8.2,5.2,1.2.3,1,3,2.7,3.3,1.9s2.2-.3,2.5,2.2,1.5,2,1.5,2l9.5-.2,3.3-2.9,8.5-.2c4.3-.2,1.7-6.1.8-6.1-1.5-1.2.5-6.1.5-6.1l-12.1-11.3c-2.8,0-.3-4.1-.3-4.1,2.2-1.4-.5-3.5-.5-3.5.3-2-1.2-4.4-1.2-4.4-3-2-2.2-5.9-2.2-5.9v-2.7c-2.5-2.4,1-2.7,1-2.7,1.2-2-.8-3.5-.8-3.5l-.2-2.2-2.7-.3-.3-7.9-6-8.6c-1.2-.3-.3-2.4-.3-2.4,1.5-.8-.3-2.9-.3-2.9l-.2-3.7,3.5-.3.8-1.3h1.7l-.2-4.4c.8-2.2,2.8-1,2.8-1l2.3.2,1.3-2.5.3-2-1.8-.2c-2-1.2-1-5.6-1-5.6,3.2-4.7,6.8-2,6.8-2l2.3-.2c3.5,2.4.3,6.7.3,6.7-.7,1-.3,4.2-.3,4.2l.8,5.4-2.2,1.9c-1.8,1-1.8,3.4.2,3.9,1.3.2.8,3.4-1.2,1.2-3,0,1.7,2.7.3,2,3,1.5,2.3-1.3,2.3-1.3l4-3.2c1.5-1.2,4.2,2.5,4.2,3s6.6.2,6.6.2c1.8,1.2,2.5,4.2,2.5,4.2,1.8-2.4,5.7-.2,2.8,1.2,2.7,1.7,2.7,3.2,2.7,3.2,2.2-.7,2.2,1,2.2,1.5s.7-2.5.7-2.5c-2.5-1.9,3.3-2.5,1.7.8l-1,1.5,1.7,1.3.2,3.9c3.7-.3,2.7-4.9,2.7-4.9l1.7-.3c0-1.5,1.2-.7,1.2-.7-1.2-5.7,2.7-6.7,2.7-6.7,2.2-.5,2.3-5.1,2.3-5.1-1.5-.7-.7-3,1-1s-1-4.1-1-4.1l-1.3-1.2-1.8-.2-.2-1.9h-3l-.5,2.4-1.1.5-.3-.7-.5,1.9h-3l-.2-2,1.8-.5.7-1,.5-2.7h2.2l2.8-.8c.2-2.9,1.7-2.2,1.7-2.2l2.5,2,.2,1-1,.5-.2,1.4.5,1.9h1.3c.5-2.7,4-2.7,5-1l1-2.4c-2.3-1.2,0-3,.6-2.2.7.8,2.2-2.2,2.2-2.2,0,0,1.2,1.5,0-.5s.8-3,.8-3c-.3-2,2.2-1.7,2.2-1.7l.2-2.7-2.3-.2c-.5,2.4-2.5.3-1.5-.2s2-1.5,2-1.5v-1.7l1-.3.2-1.7h2.5l2.2-1,.5-.8,2.3-.2,3.3-3-.3-1.3c-2,0,0-1.5,0-1.5l.2-2.8Zm-90.3,151.7l-1.3-2,2,.3,2.1,1.8.9,2.2-1.2.7-.7-1-1.6-.5-.2-1.5Zm-36.7-50.6l.8,2.3,1.2.9,1.1,2.5-.6,1.2-1.9-1.7-1.3-1.9-.7-1.5-1.1-3,2.5,1.2Zm-10-9h-.8v1.7h1.3v2.2h1l-.2-2.5-1.3-.5v-.9Zm130.8-102.8l1-.2.2,1-1,.2-.2-1Zm1.2-.6l.3-1,1.3.4-.2,1-1.4-.4Zm2.4-1l.1-1-1.1-.2-.2,1,1.2.2Zm1.7-2.2h1.3v1h-1.3v-1Zm8.5,1.2l.1-1,1.2.1-.2,1-1.1-.1Zm3.3.7l.1-1-1.2-.2-.1,1,1.2.2Zm1.2.1h1.3v1h-1.3v-1Zm1.5,1.7v1.2l1-.1v-1.2l-1,.1Z" style="fill:#009edc; stroke-width:0px;"></path></g></svg></g></g></svg></g><g id="dark-icon"><svg xmlns="http://www.w3.org/2000/svg" version="1.1" xmlns:xlink="http://www.w3.org/1999/xlink" width="1000" height="1000"><g><g transform="matrix(1.8181818181818181,0,0,1.8181818181818181,0,0)"><svg xmlns="http://www.w3.org/2000/svg" id="uuid-119f5393-12b5-44d2-abe5-86ae9f3b06c1" width="550" height="550" viewBox="0 0 550 550"><path id="uuid-493846a1-3c9a-4055-a1a4-3b3230757607" d="m161,411c-19-16-22-39-30-59-5-13-14-24-23-35,12,34,5,58,34,82-5-2-10-6-14-9-23-19-57-22-71-53,4,23,22,43,41,56,19,12,43,11,63,18m50,12c3-1,7-1,11-2-14-2-27-7-37-16-15-14-28-28-44-39,17,34,23,48,51,54,0,0-8-1-12-2-30-6-66,2-88-23,9,16,26,29,42,35,26,8,53-1,77-7m40-2c-48,0-73,42-120,14,23,28,60,30,90,11,12-8,23-19,38-19,23,0,48,24,69,46,4-3,7-6,10-9-22-21-54-43-87-43m-135-47s-6-11-8-18c-7-27-3-60-15-86,2,15-4,28-5,42-2,19,5,32,10,41,0,0-7-9-10-14-14-22-43-37-45-64-4,59,37,75,73,99m-14-175c4-8,6-18,8-27-2,4-4,8-7,11-19,16-30,25-35,50l2-22c2-22-10-46,3-65-13,14-20,32-20,50,0,24,14,41,15,64,4-24,24-41,34-61m-7-44c9-8,20-15,28-25,9-12,17-26,29-37-16,7-34,13-45,30-6,10-7,22-12,32m-20,48c4-8,11-16,18-22,18-13,36-30,37-52-10,24-41,28-48,53,0,0,4-15,5-18,5-17,4-37,21-48-33,7-35,43-33,70,0,6,1,11,0,17m5,116s-2-19,1-27c8-24,16-50,15-75-8,30-33,40-22,81-4-8-5-17-8-25-6-22-23-41-18-67-8,23-8,41,0,65,5,18,23,31,32,48" style="fill:#4bccff; stroke-width:0px;"></path><path id="uuid-92618912-7b07-48b4-934b-d98f37354b8f" d="m389,411c19-16,22-39,30-59,5-13,14-24,23-35-12,34-5,58-34,82,5-2,10-6,14-9,23-19,57-22,71-53-4,23-22,43-41,56-19,12-43,11-63,18m-50,12c-3-1-7-1-11-2,14-2,27-7,37-16,15-14,28-28,44-39-17,34-23,48-51,54,0,0,8-1,12-2,30-6,66,2,88-23-9,16-26,29-42,35-26,8-53-1-77-7m-40-2c48,0,73,42,120,14-23,28-60,30-90,11-12-8-23-19-38-19-23,0-48,24-69,46-4-3-7-6-10-9,22-21,54-43,87-43m135-47s6-11,8-18c7-27,3-60,15-86-2,15,4,28,5,42,2,19-5,32-10,41,0,0,7-9,10-14,14-22,43-37,45-64,4,59-37,75-73,99m14-175c-4-8-6-18-8-27,2,4,4,8,7,11,19,16,30,25,35,50l-2-22c-2-22,10-46-3-65,13,14,20,32,20,50,0,24-14,41-15,64-4-24-24-41-34-61m7-44c-9-8-20-15-28-25-9-12-17-26-29-37,16,7,34,13,45,30,6,10,7,22,12,32m20,48c-4-8-11-16-18-22-18-13-36-30-37-52,10,24,41,28,48,53,0,0-4-15-5-18-5-17-4-37-21-48,33,7,35,43,33,70,0,6-1,11,0,17m-5,116s2-19-1-27c-8-24-16-50-15-75,8,30,33,40,22,81,4-8,5-17,8-25,6-22,23-41,18-67,8,23,8,41,0,65-5,18-23,31-32,48" style="fill:#4bccff; stroke-width:0px;"></path><g id="uuid-e61cf195-47eb-4de1-a5da-150dab985b69"><circle cx="275" cy="242" r="163" style="fill:none; stroke:#4bccff; stroke-width:4px;"></circle><circle cx="275" cy="242" r="129" style="fill:none; stroke:#4bccff; stroke-width:4px;"></circle><circle cx="275" cy="242" r="98" style="fill:none; stroke:#4bccff; stroke-width:4px;"></circle><circle cx="275" cy="242" r="64" style="fill:none; stroke:#4bccff; stroke-width:4px;"></circle><circle cx="275" cy="242" r="33" style="fill:none; stroke:#4bccff; stroke-width:4px;"></circle><path d="m275,79v130m0,66v130M160,127l92,92m46,46l92,92M112,242h130m66,0h130m-278,115l92-92m46-46l92-92" style="fill:none; stroke:#4bccff; stroke-width:4px;"></path></g><g id="uuid-4cef628b-597d-4fe5-bd1d-e101c7ce3bb2"><path d="m267.1,282.2c.4-.8,1.2-4,2.2-3s1.6,0,1.6,0c0,0,.5.5.2,1.5-.2,1-.5,2-1.1,2.2-.6.1-1.1.5-1.9.6-.6.1-1-1.3-1-1.3Zm8.2-1.3c.2-.2.5.8,1,.6.5-.1.7.9.2.9s-.5.6-.5.9,0,.9-.4,1.3-.7.1-1.2-.1c-.5-.3-.7-.3-1.4-.3-.6,0-.1,1-.1,1,0,0-2.6-.1-2.1-.5s1-.5.6-.8,0-.5,0-1,1.2-.3.9-.6c-.4-.4,0-1.8.6-1l.4-.9c-.4-.4-.1-.5-.9-.8-.7-.3-.1-1.8-.1-1.8l.1-1c.2-1.3,2.7-1.4,2.9-.3.1,1.1,0,1.9,0,1.9l.7.3s-.1.8-.7.8,0,.4-.4.8l.4.6Zm92.1-60.8c-.7.7-2.2,1-2.2,1l-.5,1.9-.8.7s.2.5,0,1.7-1.7,1.9-1.7,1.9l-.7.8s-4,.2-4.5,0c-1.5-.7-.5-2.7.5-2.5s-.2-2.9-.2-2.9l1.3-.2s.2-3,.7-3-.2-1-.8-1.5c-.7-.5-1.5-2.2-2.2-2s-3.3,0-3.3,0l-.5,1-1.8.3s.2,1.3-.2,1.7c-1,1.2-4.8,3.7-3.2-.5l.5-1v-1.5l-3-.2s-1.5-.5-1.5-1.2-.2-1.5-.2-1.5l-3.5-3.9-4.2-.5-.3-.8-2.5-.3c-3-1.5-5.7-.2-5.2,2.4.5,2.5,1.3,3.5-.3,3.5-1.7,0-2-1.3-2-1.3,0,0-1.3-.5-1.3.2s-.5,2,0,2.7-.7,1.7-1.2,1.2-1.8-2-1.5-2.5-2.3-3.7.3-4.2c2.7-.5-.2-2,.8-2.4l1.3-.7h1.3l.8-.7-2.2-.3-1.3-.2-2.5-.2c-2.5,1.7-3,3.7-3,3.7-1.3,2.5-4.5-1-3.3-2.4s-3.7-.2-4.5.5-3.3.3-3.3.3c-.5,1.5-2.8-.2-2.2-1.2.7-1,.7-1.7.7-1.7l-.8-.2-1,1.9c-2.3,0-3,1.3-2.5,2.2.5.8-.7-.2-1,1s.2,1.2,1.2,1.7-.5.5.2,1.3,2.7,0,1.5,1.2-3.5.7-3.5.7c-.2,1.5-3.3,1.2-3.7.7-.3-.5-2.8-3.5-2.8-3.5l-3.2-.2c-.3-2.4,1.5-1.2,2.2-3,.7-1.9,1-4.9,1-4.9,0,0-2.7-.2-2.8.7-.2.8-1.8,1.4-1.8,1.4,0,0-1.3.5-.8,1.2s-1,1-1,1c0,0,.3,1.1-.2,1.5-1.3,1.4-4.7.2-5.2-.3l-2-.8-2-1.3-2.3,1-.7.7h-2.5l-.2,2,4.5.5.3,4.2-1.8-.6h-1.2l-.5-1-1-.2v3.7l1,.8.8.8,1.7.2.3,2,4.2.2.5.8,2.5.2,4.8,4.9-.3,1.5-.8.5c.3,1.2-2.2.5-2.2.5v1l1.2.2,1.2.7,1.7-2.9c1.8-1.2,2.7.5,2.8,1.5.2,1-.8.8-.8.8v2.4l1,.3c1.7,2-.7,3.2-.7,3.2l-.5,1.7c-.5,1.5-2.3,1.2-2.3,1.2l-.7,1-2,.5,3.9.5c.4-1.4,1.4-1.7,1.9-1s.5,1.9.5,1.9l1,.2-.2,1.9,1,.3v5.4l1.2,1.3c2-.8,2,.5,1,1.2s-.3,3.7-.3,3.7l-.8.8v1.4l-1,.7v1.9c-1.7-.8-3.7-.5-4.2,0-1.5-1-4.7-.7-4.7.2,1,1.3-1.2,1.7-1.2,1.7l-1.2,1.3c.8,1.7-.8,1.9-.8,1.9v3.2l-2,1.9.2,4.4c0,1.2,2.5,1.3,3,.7.5-.7,2.5,1.4,2.5,1.4h1.5l.3-3-1-.5v-4.9l1.7-1.9c2-.7,1.3,4.4,1.3,4.9.2,1.9,1,1.7,1.8,1.3,1.7-.7.3,1.9-1,1.7s-.5,1.7-.5,1.7l.8.3-1.5,1.2-1.3,1.5-1.7-.5-2-.2-.7-1.2-1.2-.2-.2,2.4-.8,1-2,2c2.7,0-.3,1.9-1,1.9,1.5.5-.2,2-4,.8v1.2l-1.3.2,1.2,1.3,1.3.2-.5,2.9c0,2.2-5.5.7-6,.2l-.2,3-1,.2.2,2-.2,2.9,1.8-.3v1.2l4.5.2,6.5-6.9,3.8-.8c.3-1.7,2,.3,2,.3,1.7-.2,2,1,2,1l2.2.3c1.8.5.7.7.8,1.4.2,1,1,.7,1,.7l.3-2.2,1,.2-1-1.2-1.8-.8-2-.8c-1.3-1.9.3-1.5,1.7-1.3h2.2s2.5,3.4,2.5,4.2,1.2,1,1.2,1l1.5-.2.5,1.2h1.5l.5,1h3l.2-1.5-2.8-.5-.2-1.7-2-.5c-.7-2.9.5-3.7,1.3-2.4l1,.2-.3-2.5,1.2-.3-.3-3.5-1-.3v-1.2l4.2.2c-.3-2.2.2-3.2.2-3.2h1.2l.2.8,5.1.5,3.6-4.1c-.2-.3.4-.5,0-.9-.5-.5-1.2,0-2-.5s0-3.4-.2-4c-.2-.7,2.8-1.7,2.3-.2s0,2.2,0,2.2c2.2-2,4,.2,3.8.7s1.2,1,2,.5,1.8,1.5,1.5,2.5-3.3.8-3.5-.2-.7-.7-1-.2-1.8.8-2.7.3c-.2-.1-.2-.2-.3-.3l-3.6,4.1h.2c2,1.2,1,2.7.3,3s-1.8.3-1.8.3l-.3.7-4.3.3-.3,1.7c-2.2-.3-3,2-2.5,3.2s0,2.2,0,2.2l1.8.8,2.3-.7c.3-1.7,1.8-2,3.2-3,1.3-1,3.5,1.9,2.8,3.2s-.7,1.9-.7,1.9l.2,1.5-1.7.7-1.3.7-.2.8h-4.5l-.8.8-2.2.2-.7,1-1.5.2s-2.5,1.2-1.5,2.5c1,1.4-4.2,1.2-5.3-.7-.3,1.7-2.2.2-2.2.2l-1.8-.5-.2-2.5c-.3-1.7-3.5-1.7-3.3-.5s-6,.5-6,.5l-2,1-1.8,1.1-.2.8-3,.3-1.3.7-.5-1h-1.3l-1.3,1.9c-3.5.2-6.8,2.2-6.5,3s-1.3,1.7-1.3,1.7l-1.5.5-1,1.5-2,.7-.3,3.5-1,.7v1.5l-1.2.3v.8l-1.7.2,1,2.5,1.3.7c2.3.3,1.3,3.2,1.3,3.2l1.3.2.7,1.9,1.3,2.7c.5,2,2,1.5,2.7,1.4.7-.2,1.3,2,1.3,2l6.6.2s-.3.7.8,1c1.2.3,8.8.7,9.1.2-.3-1.5,4.2-1.9,6-.5,1.8,1.3,4.3.5,4.3.5l2.5,3,1.7,3.7,2.8.8,2,.5.7,2.9,1.5.2.5,1.9c1.8,1.3-.5,4.2-.5,4.2v3.7l1.3.7-.2,1.4,2.2,2.2,2.5.2,6.3,6.7,5,1.5.8,2.7,1.3-.2,1-.8,4-.2,2-1.9,2.2-.3,18.5-15.7-1.7-1v-3.7c3-2.2,3.2-6.1.3-6.4-2.1-.3-1.2-2.5.8-2.9l1.2-.5v-1.5l3.8-3.5v-2.7l-8.3-6.9c-3.7-1.3,0-9.4,2.5-9.3,2.5.2-.2-12.5-.2-12.5l-1.3-.7.3-4.1h-1.8l-3,3.9-.8,2.7c-.3,3.5-10.6,2.9-11.1,2.4s-4-2-4-2c0,0-2.7-2.2-3.2-1.5s-2.8-.8-2.8-.3-2.2-1.2-2.2-1.2l-3.3-1.2,2.5-.5-.5-2,4.3,2.2c.5.7,2.7.5,2.7.5l.7.8s1.3-.2,2.2.8c.8,1,5.2.2,5.2.2l1.2,1,1.8.7,5.2.2.2-3.2,1-1-.2-2,1.2-1v-1.7l1-.3.2-3.7.8-.2v-8.1l-2.5-2.4c-.2.8-2.8.8-2.8.8,0,0-.7,1.2-1.2,1.2s.7,1.5.3,2.5c-.3,1-1.7,1-1.7,1l-2.5.7-.7.8h-2.7l-.3-2.2,3-.8,1.7-.8.8-1.7c.2-1.7,2.2-1.5,2.2-1.5,0,0,3.8-3.2,4-4.7s1.5-5.7,3.8-5.7h4.3c1.7-.7,1.2-2.9,1.2-2.9l2.2-.3.3,1.2s3,.3,3.3-.2,1-1.7,1.8-1.2,3.5-1.2,3.5-1.2c.2-1.2,4.3-.7,4.3-.7l.5-1.5s-2.8-3.9-3.3-3.9-3.2-2.4-3.5-1.5c-2.7-.7-2.5-4.4-2.5-4.4l-1-2.4c0-1.4-2.5-4.2-3-3.9-2.5-1.9-.7-4,0-4.2s2.3-2.5,2.3-2.5l.8-2.4,2.8-.8.3-2.2-1.5-.2s1.7-3,2.5-3,6.3,0,6.8-.3,1.5-3,1.5-3.5,1.3-.7,1.8-.8c.5-.2,1.7-1.5,2-2.2.9-1.7-.2-5.9-.9-5.2Zm46.1,53.9c-.1-.3-.2-.6-.5-.7-.7-.3-2,.2-2.6.6l.6.8c.6-.4,1.5-.6,1.6-.5v-.1l.9-.1Zm4.3,20.1l-1-.1c-.1.8.1,1.8.9,1.9l.2-1s-.1-.4-.1-.8Zm3.7-4c.3,1,.6,2,.6,2.1l.9-.4s-.4-1-.6-2l-.9.3Zm2.2-.8v-.2c0-.3-.1-.7-.3-1.1l-.9.5c.1.2.1.5.2.7,0,.3.1.6.3.8.2.1.4.2.7.1l-.2-1c0,.1.1.1.2.2Zm-8.5,7.2c.7-.4,1.6-1.3,1.5.6s-.9,1.3-1.5,1.9-1-1.9,0-2.5Zm-40.1,13l.1-1.5,1.6.2-.1,1.4-1.6-.1Zm.1,3.3c-.2-.9-1.2-1.2-1.3-1.2l-.3,1c.1,0,.2.1.3.2l.2.9c-.1.1-.2.2-.2.3l.7.7c.5-.8.7-1.3.6-1.9Zm-124.3,31.2l-1,.9-.5.4.5.4,1.2.8.6-.8-.7-.5.5-.4-.6-.8Zm11.8,12.1l-.4.9,1,.5-.3.4.7.7,1.3-1.3-.6-.4-1.7-.8Zm-45.9-217l1,1-.7.7-1-1,.7-.7Zm30.2,31.5l1,.8-.6.8-1-.8.6-.8Zm-3.8.7l.2,1.9h2.5c1,0-.8-1.2-.8-1.2,0,0-2,.2-1.9-.7Zm54.8-47l-1.7-.2-.1,1,1.4.1,1.1,1.7.8-.6-1.1-1.8-.2-.2h-.2Zm4.5-35.4l-.5.9,1.3.8.3.2.2-.2,1.9-1.2-.6-.8-1.5,1-1.1-.7Zm8.9,4.8l-.8-.9-.7.8,1.5,1.5.3-.3,1.7-1.4-.7-.8-1.3,1.1Zm-55.2,35.1c-.1-.6,3.3-.7,3.8-.2s.2,1.4,1.7,1.4.8,1,.7,1.5c-.2.5-1.8.3-2-.2s-2.7-.7-2.7-.7c0,0-1.3-1-1.5-1.8Zm19.1-1.9c2.6.8,3.5.2,3.7-.5s.3-.8,1.3-1-.2-2.2-1.2-2-2-.3-2.2-1.2c-.2-.8-1.8-3-2-1.3s-1.2,1.7-1,2.9c.3,1.1.8,2.9,1.4,3.1Zm16.5-28.5c-.4-1.5-2.5,1.9-.3,2.5,2.2.7,4.3,0,4.3,0l.5-1,8.3.2c.7-.7,1-1.7,1-1.7,0,0,2-.7,2.8-.3.8.3.2-2.4-.7-2-.8.3-2.5.2-2.5.2h-3c-.2-1.2-2.8-.7-3,0-.1.6-1.1.8-1.1.8l-3.8.3c-.4,1-2.3,1.7-2.5,1Zm.3,8.3l-2.2-2.2v-1.9l-.7-.7-.7-2.4-2.2-.7-2.2.8-2.3,1.5-2.5.3-1.3,1.5,5.3.5,1,1.7,3.8.3,2.5,2.5c2.3,1,2.8,0,1.5-1.2Zm7.7,16.2l.7-1.6.9.5-.7,1.5-.9-.4Zm49.7-1.7c-.3-1.3,3.3-2.5,4.2-1.5.8,1,3.2,1.2,3.5,6.2.1,1.8-3-1.9-3-1.9l-2.5-.8c-1.4-.3-2.1-1.1-2.2-2Zm-17.5,4.4c-.5,1.5-.7,3.5-1.5,3.5s-.5,2.2-.5,2.2c0,0,2.2,0,2.8.2.7.2.7,1.9.7,1.9,2.5-.2,3.5,3.2,3.2,4.1-.3.8,1,.8,1,.8,0,0,0,2.7-.3,3.4s2.2,1.2,2.8,2.2c.7,1-.3,4.4-.8,4.6s1.3.7,1.2,1.5c-.2.8.5,0,.7,1.4.2,1.3.5,4.2.5,4.2l2.3.2c.3-2.2,4.6-2.3,5.3-2,2.8,1,5,5.4,5,6.4s-1.8,1.2-1.8,1.2l.3,4.9c2.8.8,5.2,4.9,4.8,5.6-.3.7,2,.5,2,.5.3-3,3.2-2,3.3-1,.2,1,.7,3.2.7,3.2l.8,1.5,1.2,1.2,1.8-.2.5,1,2.2.3s1.8,2,2,2.5,2.7.3,3.3.5c.7.2,1.7.7,1.8,1.5.2.8,1.2,2.2,1.2,2.2,0,0,2,.5,2.2,1.2s1,2.2,1,2.2l1.7,1.4.2,1.5,1.8.2.5,2,3-.2,1.7-1.2c2.2-1.2,3.7-2.7,3.8-3.4.2-.7.5-3.2,2.2-2.7s.5-3.7.5-3.7c0,0-2.3-1.7-2.2-2.5.2-.8-2.3-2.5-2.2-3.2.2-.7-2.2-2-2-2.7s-1.2-2.5-1.2-2.5l-2.5-2.4-.3-1.5-2-.2-4-4.9.2-1.4-1.2-.2v-1.9l-1.2-.7-1.8-.2-3.7-4-.3-1.9h-1.8l.3-3.5c1.2-1.5.5-4.4.5-4.4,0,0-2.3,1.2-3.5.7s.5-1.7.5-1.7v-1.3l-1-1s-2.8.3-3-.2-.7-2.7-.7-2.7l-.2-2.9-1.2-.5-.2-1-1.8.2v-2l-1-.3-1-.5-.2-2-3.7-.2-1.2-1.7-1.3-2-4.2-.3-1-1-1.7-.3-1.2-.5-.5.8-3.2.2-.2,1c-1.4.7-8,0-8.2.5Zm-30.6-1c.3.5,2.3,1,2.3,1,1.3,0,2.2,1,2.2,1.5s1.8.3,1.8.3l.2-1.2-1.3-1.7-1.2-.8s-1.8-.2-1.8-.7c0-.4-1.9,1.1-2.2,1.6Zm0,5.7l-1.3-.3v1.5l1.8.2-.5-1.4Zm18.5,18.6v-1.3s-.2-1.3-1-1.3-2.3-1-2-1.7-2.8-1.4-2.8-1.4c0,0-2.8-2.7-1.8-2.4s.5-1.2.5-1.2c0,0-2,.3-2.5.2-.5-.2-.3-1.7-.3-1.7,0,0-2-.5-2,0s.7.5,1,1.5.2,2.7,1.7,3,1.8.7,2,1.4,2,.8,2,.8l1.3.7,3.9,3.4Zm1.3,4.5c-.2-.7-.5-3,.5-2.9,1,.2.3,0,1.5.5s1.3-.8,1.3-.8h1.8l2.3,1.9-.3,1.5-1.7.2c-.8-1.3-2.5-.8-2.2.3.3,1.2-.8,3.4-1.5,3.5-.7.2-2.8.2-2.7-.8.3-1,1-3.4,1-3.4Zm27.4,23l1.2-3.7c-1.7-.3-1.3-2.2-1.3-2.2-.2-1.5-2.5-3.2-3.3-2.7s-.5-3.5-.5-3.5c0,0,1.5-1,2.2-.5s-5.7-8.4-7-7.6-4.3-.8-4.2-2.4c.2-1.5-6-6.6-6-6.6,0,0-2-1.3-2.3-.3s-1,1.7,0,2.2.8-.8,2,.3c1.2,1.2,3.3,2.7,2.5,3.7s-1.8,1.4-1.8,1.4l1.2,1.4h1.8l.3,2.9s2,1,2.5,2.2.5,1.9,0,2.5c-.5.7-1.5,1.9-1.3,3,.2,1.2,1.5,1.7,1.5,1.7l1.3.2,1,.5v2.2c1.3-.3,3.5,1.5,3.3,2.7s.3.5,2,1.7,1.2,1.4,2.3,2.2c1.1.7,2.1.2,2.6-1.3Zm-38.2,21.6c0,.5-.3,1.2.7,1.4s2.8-.7,3,.3.2,1.7,1.5,2.2,2.2.7,3.2.7,3.2-.3,3.2-.3c0,0,2.4.4,2.8.8,1.8,1.9,3,2.4,3.5,1.5.5-.8-.2-2.7-.3-3.4-.2-.7-2.5-3.9-3.3-3.2s-1,0-2.5.5-4.7.2-4.8-.5c-.2-.7-2.5-1-2.5-1.7s-1.7-1.5-1.5-.5-1.2,1.5-1.5,1.2c-.5-.4-1.5,1-1.5,1Zm-8.3,1.8l-.2,1.2,1.8.2s.8.7.8,1.2,1.2,1,1.8,1c.7,0,2.5-1.4,2.5-1.4,0,0,.8-2.4.2-2.2-.7.2-2,1.2-2.2.2s-2.2-.5-2.2-.5l-2.5.3Zm-8.6,1.9l.5-.1.3.9-.5.2-.3-1Zm.6-1.6l1-.2.3,1.5-.9.2-.4-1.5Zm2.8.2l.1,1,3.6-.1v-1l-3.7.1Zm32.4-.8l1.7-.2.1,1-1.7.2-.1-1Zm4.4,3.7l.5-1.2.9.4-.5,1.2-.9-.4Zm14.5-16.9l1.7-.1.1,1-1.7.1-.1-1Zm2.8,1h1v.8h-1v-.8Zm3-14.2l-1,.1-.2-1.5,1-.1.2,1.5Zm-1,21h1v1.2h-1v-1.2Zm2.2.6l.9.4-.5,1.1-.9-.5.5-1Zm-4.9-13.3c1,0-.3,3.9,2.3,3.5,2.7-.3.2,1.2,2.2,1.3,2,.2,1.5-1.5,2.2-2.7s.3-1.9-.8-2.2q-1.2-.3-1.5-1.7c-.3-1.3-1.7-1.7-1.7-1.7l-.5-2-2.2,1.3-2.2,2.9c0,2.4,1.2,1.3,2.2,1.3Zm6.5,9.2c1.3-.7,4.2-.7,4-1.7s1.7-1.3,1.7-1.3l.5,2,1.5,1,.2,1.9s.5-.3-1.3.2-.7,1.3-.7,1.3l-4,.2-.5-1.7-1.4-1.9Zm-21.5,14.1c.8-.2,2.8-.3,3.2.2.3.5-1.2,1.2-1.2,1.2l-2,.3c-.6-.8-.8-1.5,0-1.7Zm10.7-1.5c.9.9-5,.7-5,0s.5-3,2-2.5,1.7-3,1.7-3c0,0-1.3.2-.2-.5,1.2-.7,0-1.7-.5-2.2s-1-1.4-1-1.4h2.3c1-.7,1.3-3.9,1.3-3.9,2,.7,3-.7,3-.7,0,0,.3,1,1,1.9.7.8-1.7,1.2-.8,1.7.8.5,1.2,2,.8,2.5-.3.5-2.2.2-2.2-.5s-.7.8,0,1.7c.7.8-.8,2-1.2,2-.3,0-2.5.3-.7,1.4,1.8,1,3.8.5,3.8.5,0,0,1.5-.2,2,.7.5.8-.2,1-1,1s-4.8-.3-4.8-.3c0,0-1,1.1-.5,1.6Zm19.4-19.1c-.5-.7-1-1.2-1.7-1.5s-1.2-.7-1.8-.7c-.7,0-1.3-.7-1-1.5s-.5-1.2-.5-1.9.5-.7,1.3-.2.7.7,1.3,1.5c.7.8,1,1.7,1.7,1.5s1.2,1.5,1.8,1c.7-.5.5,1.2.5,1.2l-1.6.6Zm-1.6,1.6c.5.7,1.5,1.2,1.5,1.9s-.3,1.2.7,1.3c1,.2,1.7-.2,2,.7.3.8.3,2.2.2,2.9-.2.7.2,1.7,1,1.7s1,.2,1,.7,1-1.9,1-1.9c-.8-.7-1.5-2.2-1.5-2.2,0,0-.8-2.4-.8-2.7s-1.2-.7-1.7-.8c-.5-.2-1.3-1.7-1.3-1.7l-2.1.1Zm10.8,27.3l-.7-1.5s0-1.3.3-2-.7-1.3-1.2-1.5-.3-1.5-.5-2.2-1.3-1.2-1.3-1.2c0,0-.3-2.5-.3-3s-1.5-1.2-1-1.7.8-1.2,1.3-1.5-.5-2.7.3-2.2.8,1.4,1.2,2c.3.7-.2,3,.7,3.5.8.5-.2,2.2,1.2,2.2,1.3,0,.5,3.2.5,3.2,0,0-.3,2.4.5,2.5.8.2.3,4.2.3,4.2l-1.3-.8Zm.5,12.9l.5-1,.9.5-.5,1-.9-.5Zm1.1-5.5l1,.1-.1,1.4-1-.2.1-1.3Zm-2.1-5.6l-1.3-.2-3,.5-1.7,3.2s.8.5,1.5,1.7,1,8.1-1,9.3.2.5.2.5l-.3,3.7c.5,1.7,1.3.8,1.8,0s1-1,1.7-1.9c.7-.8,1.7-2.4,1.8-3.5.2-1.2,1-3,.5-3.5s.5-2.9.5-2.9c0,0,.7-1.4,0-2.7-.7-1.4.2-2.9.7-3.5l-1.4-.7Zm-7.3-17.2h-2.5s.8.3-1.5-1.9-3.8.5-3.8.5l-2.7.3v2.7l-1.3.5.2,1.7,1.8-.2s0,2,.5,1.2,4.7.2,4.3,2.2c-.1.8,4.2,3,3.7,5.7,2.2.3,1.7,2.5,1.7,2.5l2.8.3.8-1.7.8.2v-1l-1.8-.5-.3-5.4-1.2-.8.3-1.4-1.3-.5.7-2.2-1.2-2.2Zm-6.2,41.4l1-.4-.4-.8-.2-.6-.5.3-1.2.7-1.1-.7-.5.9,1.3.8.3.2.2-.2,1-.5.1.3Zm4.4-2.2l1.8.3.2-1-1.8-.3-.2,1Zm-3.4,21.6c-.7-1,3.3-2.7,4-.7s0,1.7-.7,1.5c-.6-.2-2.3.5-3.3-.8Zm-17.2,32.5h1.2v3.2h-1.2v-3.2Zm7.7,30.9c-.3,1.3-1.5,2-2.2,1.5s.8.8,1.2,1.5c.3.7,1.3.7,1.7,0,.3-.7.2-2.2.5-2.9.3-.6-1-.8-1.2-.1Zm3.7,6.8l1.5.7.2,2.9c2,2,8.5.3,8.5-.2s-.3-6.2-.3-6.2l-.8-.8-.2-4.2c.7-2.2-3.2-5.4-3.5-4.7s-2.5.2-2.5.8c0,.7-1.3,4-.7,5.2.7,1.2-.5,1.2-.7,2.4-.2,1-1.9,3-1.5,4.1Zm-46.8-36.1l-.5-.8-1.4.8.6.9,1.3-.9Zm-25.4,3.3c-.8.8-.6,1.5,0,2.1m5.2,2l1.1-1.9-.9-.3-1.2.8.5.5.5.9Zm-1-52.7c.7,1.5.5,3.7,3,5.4.8.6-.5,1.7-1.3,1.2s-3.2-4.2-3.2-4.2v-2.2c.5-1.3,1.2-.8,1.5-.2Zm-8.8,8.8c.4,1.5.3-2.4,1-2.2s.2-2.4.2-2.4l-3,2.2c1.4.2,1.6,1.7,1.8,2.4Zm-9,10.8c-.2,2-2.7,2.7-2.7,2.7l-1.8-.5-1-.8-.2-2.4,1.5-.2.3,1,3.9.2Zm-2.7-20.4v-2.4l-.3-2.2-2.5-1.2-1.8,1.7-.3,2.4v1.5l-1.7.3-.3,4.6-1.3.5.2,1.7-3.6,1-.3,2.2-1.3.8-.7,2-.8,4.9s1.5,2.9,2.3,1.5c.8-1.3,2.2-1.5,2.2-1.5l.5-1.2,4.5.2c.3-1.9,2.5-1.2,2.5-.3,0,.8,1.7.2,1.7.2l1.2-1.9h1.8l.2-2,.8-.5v-3c2.7-.8,2.3-3.4,2.3-3.4l.7-.8-.3-1.2c-1.3-.5-.7-1.7.2-1.4.8.3-1.2-1.5-1.2-1.5-1,.8-1.8-1-1.8-1h-2.9Zm-7.6-6.9l-1.3.3-3,2.9-.2,1.3-.8,1.2-1,2.5-3.5.2-.7,3,.5,2.6,3,1.2.3-1.7,1-.5.2-1.7.7-1.2,1-1.2.3-1.3,1.7-1,2-.4.8-1,.3-2,.2-1.5.7-1.1,2-.8v-3.2h-1l-.2-1.2-1.8-.2-.4.9h-.8l-.2,1.3h1l.2,1.1-.7.6-.3.9Zm-52.8,20.3c0,.4-.3.7-.7.7s-.7-.3-.7-.7.3-.7.7-.7.7.3.7.7Zm-.1,19.3c0,.4-.3.7-.7.7s-.7-.3-.7-.7.3-.7.7-.7.7.3.7.7Zm-1.8-2.8c.4,0,.7-.3.7-.7s-.3-.7-.7-.7-.7.3-.7.7.3.7.7.7Zm-2,4l-1.4.2v1.2l1.4-.2v-1.2Zm1.5-8.6l-1.2.2-.1,1.3,1.3.2v-1.7Zm-.3-9.1l.1-1.2-2.5,1.7-1.6-1v4l2.6,3.6,1-2.4.4-1.5-1.2-.5.2-2.5,1-.2Zm-1-14.2l-3-.3.2,1.2h.8c1.3,2.4.2,8.1.2,8.1,0,0-2,.2-2.3-.8s-1.2,2.2-.5,2.7,3,0,3.2,1.9,1.5-1.2,1.5-1.2l-.1-11.6Zm67-33.4h-1.8l-.3-3.7,1-.7v-1.9h-5.8l-.2-1.9.8-.5-1.3-.5-1,1.3-.3,1.5-1.7.3v.8h-1.2v2.2l-4.7,3.9-9.3-.3c-.7,1.5-2.3-.2-2.3-.2-.3-1-2.7,0-2.7,0,0,1.9-3.2-.8-3.2-.8l-5.8-4.2c-3.3-3-8.3.8-8.5,1.7.2,2.4-3.8.5-3.8.5,0,0-3.3-1-3.8.3s-2.7,1-2.7,1l-.3.7-1.7.3-.3,1-2,.3,5-.2c1.3-.2-.5,2.9-1.3,2.7l-2.3.2-.8.8h-2.2l-1,1.4-3.2-.2s-1.8,1.5-1.7,2c.2.5-.3,2-.8,2s-1.5,1.5-1.2,2-1,2.2-1,2.2l-.3,1.7-1,.3v4.6l-2,1.4v2l-3,3.2.3,2.7-2.5,2.7.3,2.7-1.5.5-.3,1.2-.7,3.5,1.7.2c.8-.3.7,2.2,0,2.5s-2.5,1-1.5,1.7-2.7.5-2.7-.5-2-1.9-2.5-1.5c-.5.3-1.3-1.5-1.3-1.5-1.8-1.9-7.5.2-7.5.2l-.8,2.7c-1.8.3-3,3.4-3,3.4-1.5.5-2.7,2.4-2.2,2.9s-.8.7-.8.7v3.7l-.8,1.2.2,4c1,0,.8,1.9.8,1.9-1.7.2-1.3,2.4-1.3,2.4l-3.5,1.2-.7,1-4.3-.2-1.2,1.2-1.2-1.2h-8.3l-.3-.8-1.7-.3-.2-1.9-2.5.2-.5,1-2.7.2c.2,1.7-2.7,4.2-3,3.5s-2.2-2.5-1.3-2.9c.8-.3,3-.7,3-.7v-1.2l-6.2-.2-.7,1-2.5.2v2.7l-1.2.3c-.8.5.2,2.4.2,2.4,1.2,1.2-.2,3-.2,3-1,1,.8,2.9.8,2.9,1.3.3-.8,1.3-.8,1.3.3,1.7,1.3,2.2,1.3,2.2-1,1.7.7,2.5.7,2.5l.2,2.9,1.2.7v1.9l.7,1.2h2.7l-.2-4.2c-2.3-2.7,2-3.4,2.2-2.4s2,1.5,2,1.5c.3,2.5,3.2,4,4,1.5s1.5-1,2,.2,3.7,4.1,3.7,4.1h2.5l.3,2.4c2.8-.2,3.7.2,4.8,4,1.2,3.9,4.3,4.9,4.3,4.9l2.3-.2c0-2,2.3.3,2.3,1.4,0,1,4.5,4.9,4.5,4.9l4.5,1,4.2,3.4,3.2-.3h1.3c.8-2.9,4.8.2,5.2,1.2.3,1,3,2.7,3.3,1.9s2.2-.3,2.5,2.2,1.5,2,1.5,2l9.5-.2,3.3-2.9,8.5-.2c4.3-.2,1.7-6.1.8-6.1-1.5-1.2.5-6.1.5-6.1l-12.1-11.3c-2.8,0-.3-4.1-.3-4.1,2.2-1.4-.5-3.5-.5-3.5.3-2-1.2-4.4-1.2-4.4-3-2-2.2-5.9-2.2-5.9v-2.7c-2.5-2.4,1-2.7,1-2.7,1.2-2-.8-3.5-.8-3.5l-.2-2.2-2.7-.3-.3-7.9-6-8.6c-1.2-.3-.3-2.4-.3-2.4,1.5-.8-.3-2.9-.3-2.9l-.2-3.7,3.5-.3.8-1.3h1.7l-.2-4.4c.8-2.2,2.8-1,2.8-1l2.3.2,1.3-2.5.3-2-1.8-.2c-2-1.2-1-5.6-1-5.6,3.2-4.7,6.8-2,6.8-2l2.3-.2c3.5,2.4.3,6.7.3,6.7-.7,1-.3,4.2-.3,4.2l.8,5.4-2.2,1.9c-1.8,1-1.8,3.4.2,3.9,1.3.2.8,3.4-1.2,1.2-3,0,1.7,2.7.3,2,3,1.5,2.3-1.3,2.3-1.3l4-3.2c1.5-1.2,4.2,2.5,4.2,3s6.6.2,6.6.2c1.8,1.2,2.5,4.2,2.5,4.2,1.8-2.4,5.7-.2,2.8,1.2,2.7,1.7,2.7,3.2,2.7,3.2,2.2-.7,2.2,1,2.2,1.5s.7-2.5.7-2.5c-2.5-1.9,3.3-2.5,1.7.8l-1,1.5,1.7,1.3.2,3.9c3.7-.3,2.7-4.9,2.7-4.9l1.7-.3c0-1.5,1.2-.7,1.2-.7-1.2-5.7,2.7-6.7,2.7-6.7,2.2-.5,2.3-5.1,2.3-5.1-1.5-.7-.7-3,1-1s-1-4.1-1-4.1l-1.3-1.2-1.8-.2-.2-1.9h-3l-.5,2.4-1.1.5-.3-.7-.5,1.9h-3l-.2-2,1.8-.5.7-1,.5-2.7h2.2l2.8-.8c.2-2.9,1.7-2.2,1.7-2.2l2.5,2,.2,1-1,.5-.2,1.4.5,1.9h1.3c.5-2.7,4-2.7,5-1l1-2.4c-2.3-1.2,0-3,.6-2.2.7.8,2.2-2.2,2.2-2.2,0,0,1.2,1.5,0-.5s.8-3,.8-3c-.3-2,2.2-1.7,2.2-1.7l.2-2.7-2.3-.2c-.5,2.4-2.5.3-1.5-.2s2-1.5,2-1.5v-1.7l1-.3.2-1.7h2.5l2.2-1,.5-.8,2.3-.2,3.3-3-.3-1.3c-2,0,0-1.5,0-1.5l.2-2.8Zm-90.3,151.7l-1.3-2,2,.3,2.1,1.8.9,2.2-1.2.7-.7-1-1.6-.5-.2-1.5Zm-36.7-50.6l.8,2.3,1.2.9,1.1,2.5-.6,1.2-1.9-1.7-1.3-1.9-.7-1.5-1.1-3,2.5,1.2Zm-10-9h-.8v1.7h1.3v2.2h1l-.2-2.5-1.3-.5v-.9Zm130.8-102.8l1-.2.2,1-1,.2-.2-1Zm1.2-.6l.3-1,1.3.4-.2,1-1.4-.4Zm2.4-1l.1-1-1.1-.2-.2,1,1.2.2Zm1.7-2.2h1.3v1h-1.3v-1Zm8.5,1.2l.1-1,1.2.1-.2,1-1.1-.1Zm3.3.7l.1-1-1.2-.2-.1,1,1.2.2Zm1.2.1h1.3v1h-1.3v-1Zm1.5,1.7v1.2l1-.1v-1.2l-1,.1Z" style="fill:#4bccff; stroke-width:0px;"></path></g></svg></g></g></svg></g></svg>